<?xml version="1.0" standalone="no"?>
<!DOCTYPE svg PUBLIC "-//W3C//DTD SVG 20010904//EN"
 "http://www.w3.org/TR/2001/REC-SVG-20010904/DTD/svg10.dtd">
<svg version="1.0" xmlns="http://www.w3.org/2000/svg"
 width="246.000000pt" height="136.000000pt" viewBox="0 0 246.000000 136.000000"
 preserveAspectRatio="xMidYMid meet">

<g transform="translate(0.000000,136.000000) scale(0.100000,-0.100000)"
fill="#000000" stroke="none">
<path d="M75 1041 c-6 -11 145 -86 475 -237 171 -78 310 -148 338 -169 2 -2
-24 -42 -56 -91 -78 -117 -97 -169 -97 -266 0 -42 3 -79 5 -81 3 -3 111 -17
240 -31 129 -15 345 -41 480 -57 353 -43 443 -49 575 -39 132 11 265 36 281
53 16 17 63 224 71 312 12 142 -37 274 -138 373 -57 56 -158 115 -190 110 -15
-2 -28 -24 -52 -83 -47 -116 -81 -170 -117 -185 -27 -11 -47 -9 -153 15 -130
29 -318 43 -594 44 l-142 1 -298 116 c-597 232 -613 238 -628 215z m1754 -635
c14 -16 4 -46 -14 -46 -34 0 -44 11 -33 36 13 27 30 31 47 10z"/>
</g>
</svg>
