<?xml version="1.0" encoding="utf-8"?>
<!-- Generator: Adobe Illustrator 26.0.1, SVG Export Plug-In . SVG Version: 6.00 Build 0)  -->
<svg version="1.1" id="Layer_1" xmlns="http://www.w3.org/2000/svg" xmlns:xlink="http://www.w3.org/1999/xlink" x="0px" y="0px"
	 viewBox="0 0 841.89 595.28" style="enable-background:new 0 0 841.89 595.28;" xml:space="preserve">
<style type="text/css">
	.st0{fill:none;stroke:#000000;stroke-width:5;stroke-linecap:round;stroke-linejoin:round;stroke-miterlimit:10;}
</style>
<line class="st0" x1="664.39" y1="320.67" x2="245.24" y2="364.89"/>
<path class="st0" d="M574.44,420.83c0,0-3.78-153.45,17.48-257.2c0,0,3.69,134.93,20.69,119.62
	c17.01-15.31,38.55-111.69,38.55-111.69s-4.93,88.81,30.05,159.02c37.42,75.12,138.24,5.54,138.33-20.13
	c0.04-12.83-132.09,6.8-132.09,6.8"/>
<path class="st0" d="M411.64,314.43l-1.7,16.16c0,0,10.25-17.01,11.01-13.18c0.76,3.83-1.23,11.76,1.18,10.06
	s11.62-13.04,11.62-13.04s-2.55,14.46,5.24,10.35c7.8-4.11,13.32-12.76,13.32-12.76s-3.4,16.3,6.94,13.89
	c10.35-2.41,6.52-16.02,0.85-17.01c-5.67-0.99,22.39-6.8,22.39-6.8l-2.27,21.83c0,0,14.74-14.74,14.31-16.16
	c-0.43-1.42-2.65,8.66,5.39,9.78c6.09,0.85,27.35-15.59,24.09-17.15s-9.48,24.19-0.99,17.86c16.16-12.05,41.55-90.11,32.03-98.22
	c-7.65-6.52-7.94,97.23-9.07,97.23"/>
<path class="st0" d="M239.16,156.18l-6.24,243.59c0,0-29.69-87.67-52.31-116.14c-21.92-27.59-40.06-39.31-99.78-35.15
	s-69.54,21.17-49.51,22.3c20.03,1.13,171.67-24.58,235.46-33.64c66.52-9.45,94.87,4.91,88.06,26.83
	c-7.22,23.27-50.68,45.72-117.26,30.28c0,0,7.37,35.2,29.2,47.96c34.81,20.34,85.5-21.54,89.05-21.54c0,0-19.15,13.37-12.13,17.57
	c4.72,2.83,24.57-16.63,24.57-17.2s-5.86,15.31,1.51,12.28c7.37-3.02,11.15-11.34,11.15-11.34s-5.48,15.12,4.54,9.83
	c10.02-5.29,14.55-14.93,14.55-14.93s8.22,40.35-20.69,75.5c-24.16,29.37-58.76,43.91-133.23,39.69
	c-64.91-3.69-125.91-26.1-117.35-45.92c5.39-12.47,77.1-15.59,77.1-15.59"/>
</svg>
